<svg xmlns="http://www.w3.org/2000/svg" width="128" height="128" viewBox="0 0 128 128" fill="#d05278">
  <title>INK</title>
  <g>
    <path d="M32.664,67.256v6.082h-6.57a7.525,7.525,0,0,0-7.517,7.516v27.38a7.525,7.525,0,0,0,7.517,7.517h3.145v3.36a5.451,5.451,0,0,0,5.445,5.444H74.405a5.45,5.45,0,0,0,5.444-5.444v-3.36H83a7.525,7.525,0,0,0,7.516-7.517V80.854A7.524,7.524,0,0,0,83,73.338h-6.57V67.256a4.816,4.816,0,0,0-4.811-4.81H37.474A4.815,4.815,0,0,0,32.664,67.256Zm41.185,51.3H35.239v-2.8h38.61Zm9.146-8.8h-56.9a1.519,1.519,0,0,1-1.517-1.517V94.8c8.842-2.3,23.594-.91,36.731.339,7.318.695,13.723,1.3,18.793,1.3a42.4,42.4,0,0,0,4.41-.2v12A1.518,1.518,0,0,1,83,109.751Zm1.516-28.9V90.2c-4.806.655-13.843-.2-22.636-1.034-12.919-1.226-27.342-2.6-37.3-.525V80.854a1.518,1.518,0,0,1,1.517-1.516H83A1.518,1.518,0,0,1,84.511,80.854ZM38.664,68.446H70.425v4.892H38.664Z"/>
    <path d="M54.224,58.645a3,3,0,0,0,4.242,0l9.494-9.5,1.06.044q.711.032,1.418.031A33.15,33.15,0,0,0,101.41,27.913l7.815-20.394a3,3,0,0,0-3.875-3.875l-20.4,7.814A33.153,33.153,0,0,0,63.673,43.849l.045,1.059L54.224,54.4A3,3,0,0,0,54.224,58.645ZM87.1,17.062l14.114-5.409L95.807,25.767A27.152,27.152,0,0,1,74.155,42.956L93.606,23.5a3,3,0,0,0-4.242-4.242L69.905,38.721A27.153,27.153,0,0,1,87.1,17.062Z"/>
  </g>
</svg>
