<svg xmlns="http://www.w3.org/2000/svg" xmlns:xlink="http://www.w3.org/1999/xlink" width="500" zoomAndPan="magnify" viewBox="0 0 375 374.999991" height="500" preserveAspectRatio="xMidYMid meet" version="1.0"><defs><clipPath id="4062b84e60"><path d="M 247 100 L 337.5 100 L 337.5 363 L 247 363 Z M 247 100 " clip-rule="nonzero"/></clipPath><clipPath id="90ec97babf"><path d="M 37.5 100 L 128 100 L 128 363 L 37.5 363 Z M 37.5 100 " clip-rule="nonzero"/></clipPath></defs><path fill="#d05278" d="M 194.269531 354.183594 C 193.613281 345.292969 193.695312 336.359375 194.472656 327.46875 C 194.71875 324.929688 194.964844 322.386719 195.335938 319.847656 C 195.253906 320.378906 195.171875 320.953125 195.128906 321.488281 C 196.769531 309.480469 199.640625 297.640625 203.703125 286.167969 C 204.851562 282.929688 206.082031 279.734375 207.433594 276.578125 C 207.230469 277.070312 207.023438 277.5625 206.820312 278.054688 C 211.496094 266.992188 217.277344 256.378906 224.046875 246.460938 C 225.972656 243.675781 227.941406 240.929688 230.035156 238.265625 C 229.707031 238.675781 229.378906 239.085938 229.050781 239.539062 C 235.859375 230.769531 243.449219 222.65625 251.816406 215.402344 C 254.195312 213.355469 256.613281 211.347656 259.117188 209.421875 C 258.707031 209.75 258.296875 210.078125 257.84375 210.402344 C 263.546875 206.019531 269.492188 201.882812 276.136719 199.054688 C 275.644531 199.257812 275.152344 199.464844 274.660156 199.667969 C 277.941406 198.316406 281.304688 197.292969 284.832031 196.839844 C 284.300781 196.921875 283.726562 197.003906 283.191406 197.046875 C 285.367188 196.757812 287.582031 196.675781 289.796875 196.964844 C 289.265625 196.882812 288.6875 196.800781 288.15625 196.757812 C 289.59375 196.964844 291.027344 197.292969 292.382812 197.867188 C 291.890625 197.660156 291.398438 197.457031 290.90625 197.25 C 291.847656 197.660156 292.710938 198.152344 293.53125 198.765625 C 293.121094 198.441406 292.710938 198.113281 292.257812 197.785156 C 292.996094 198.359375 293.652344 199.011719 294.269531 199.75 C 293.941406 199.339844 293.613281 198.929688 293.285156 198.480469 C 293.941406 199.339844 294.472656 200.242188 294.925781 201.226562 C 294.71875 200.734375 294.515625 200.242188 294.308594 199.75 C 294.800781 200.980469 295.171875 202.25 295.335938 203.519531 C 295.253906 202.988281 295.171875 202.414062 295.128906 201.882812 C 295.335938 203.4375 295.335938 205.035156 295.128906 206.59375 C 295.210938 206.0625 295.292969 205.488281 295.335938 204.953125 C 295.089844 206.714844 294.597656 208.4375 293.941406 210.078125 C 294.144531 209.585938 294.351562 209.09375 294.554688 208.601562 C 293.367188 211.429688 291.683594 214.011719 289.796875 216.425781 C 290.125 216.019531 290.453125 215.609375 290.78125 215.15625 C 288.15625 218.558594 285.242188 221.753906 282.371094 224.949219 C 279.335938 228.269531 276.261719 231.507812 273.144531 234.703125 C 266.949219 241.054688 260.511719 247.160156 254.070312 253.222656 C 250.378906 256.664062 246.6875 260.105469 242.957031 263.546875 C 240.578125 265.761719 240.535156 270.105469 242.957031 272.316406 C 245.5 274.652344 249.191406 274.695312 251.734375 272.316406 C 260.632812 264.082031 269.535156 255.886719 278.105469 247.324219 C 282.371094 243.0625 286.554688 238.71875 290.617188 234.292969 C 294.761719 229.785156 298.984375 225.195312 302.429688 220.074219 C 305.710938 215.199219 308.007812 209.257812 307.679688 203.273438 C 307.3125 196.757812 304.359375 190.492188 298.535156 187.171875 C 292.75 183.851562 285.859375 183.976562 279.5 185.203125 C 273.71875 186.3125 268.179688 188.808594 263.136719 191.761719 C 258.171875 194.667969 253.578125 198.113281 249.066406 201.675781 C 245.210938 204.707031 241.519531 207.90625 237.949219 211.265625 C 230.484375 218.3125 223.71875 226.097656 217.566406 234.332031 C 211.699219 242.160156 206.492188 250.519531 201.980469 259.207031 C 197.261719 268.34375 193.285156 277.890625 190.085938 287.683594 C 187.046875 296.984375 184.832031 306.574219 183.398438 316.242188 C 181.921875 326.445312 181.140625 336.730469 181.46875 347.015625 C 181.550781 349.390625 181.675781 351.769531 181.839844 354.144531 C 181.960938 355.824219 182.453125 357.339844 183.644531 358.527344 C 184.710938 359.59375 186.472656 360.414062 188.035156 360.332031 C 189.632812 360.25 191.316406 359.714844 192.421875 358.527344 C 193.488281 357.382812 194.390625 355.78125 194.269531 354.183594 Z M 194.269531 354.183594 " fill-opacity="1" fill-rule="nonzero"/><g clip-path="url(#4062b84e60)"><path fill="#d05278" d="M 261.289062 354.347656 C 261.085938 353.695312 260.921875 353.039062 260.757812 352.382812 C 260.632812 351.890625 260.632812 350.824219 260.386719 350.414062 C 260.46875 350.539062 260.511719 351.972656 260.46875 350.867188 C 260.46875 350.539062 260.429688 350.210938 260.386719 349.882812 C 260.347656 349.144531 260.347656 348.40625 260.347656 347.671875 C 260.347656 347.015625 260.429688 346.316406 260.46875 345.664062 C 260.511719 344.964844 260.796875 345.335938 260.386719 346.113281 C 260.511719 345.867188 260.511719 345.375 260.550781 345.128906 C 260.796875 343.738281 261.125 342.34375 261.578125 340.992188 C 261.78125 340.417969 261.945312 339.84375 262.191406 339.230469 C 262.273438 339.066406 262.398438 338.367188 262.5625 338.285156 C 262.316406 338.410156 262.027344 339.433594 262.4375 338.613281 C 263.054688 337.304688 263.667969 336.03125 264.40625 334.761719 C 265.0625 333.65625 265.761719 332.550781 266.539062 331.527344 C 266.582031 331.445312 267.441406 330.335938 266.828125 331.15625 C 266.210938 331.976562 267.074219 330.871094 267.113281 330.789062 C 267.566406 330.253906 268.015625 329.722656 268.46875 329.191406 C 270.355469 327.058594 272.363281 325.132812 274.539062 323.289062 C 275.5625 322.429688 276.589844 321.570312 277.65625 320.707031 C 277.984375 320.460938 278.84375 319.972656 277.574219 320.75 C 277.820312 320.585938 278.023438 320.421875 278.269531 320.21875 C 278.96875 319.683594 279.625 319.191406 280.320312 318.699219 C 284.875 315.421875 289.632812 312.351562 294.226562 309.113281 C 299.3125 305.546875 304.316406 301.777344 308.625 297.3125 C 312.683594 293.132812 316.171875 288.339844 318.917969 283.214844 C 324.457031 272.972656 327.449219 261.582031 329.050781 250.109375 C 330.855469 236.957031 331.101562 223.722656 332.207031 210.527344 C 333.273438 197.742188 335.324219 185.039062 336.433594 172.257812 C 337.5 159.921875 337.5 147.507812 335.285156 135.296875 C 334.175781 129.191406 332.332031 123.292969 329.910156 117.597656 C 327.492188 111.902344 324.25 106.859375 319.164062 103.214844 C 316.621094 101.371094 313.503906 100.304688 310.347656 100.179688 C 306.695312 100.058594 303.25 101.574219 300.542969 103.910156 C 296.113281 107.679688 294.433594 113.867188 292.832031 119.195312 C 289.140625 131.527344 286.925781 144.351562 286.144531 157.21875 C 285.941406 160.292969 285.859375 163.363281 285.859375 166.480469 C 285.859375 169.714844 288.730469 172.832031 292.054688 172.667969 C 295.417969 172.503906 298.246094 169.921875 298.246094 166.480469 C 298.289062 160.292969 298.65625 154.144531 299.355469 148 C 299.4375 147.382812 299.476562 146.730469 299.601562 146.113281 C 299.3125 147.835938 299.722656 145.375 299.765625 144.925781 C 300.011719 143.367188 300.257812 141.8125 300.542969 140.253906 C 301.078125 137.304688 301.691406 134.355469 302.390625 131.445312 C 303.085938 128.535156 303.867188 125.628906 304.726562 122.71875 C 305.136719 121.285156 305.589844 119.890625 306.039062 118.457031 C 306.203125 117.964844 306.367188 117.472656 306.574219 116.941406 C 306.695312 116.652344 306.777344 116.367188 306.902344 116.121094 C 307.105469 115.546875 306.246094 117.554688 306.820312 116.285156 C 307.023438 115.792969 307.269531 115.34375 307.558594 114.851562 C 307.761719 114.441406 308.378906 113.785156 308.5 113.375 C 308.460938 113.457031 307.476562 114.523438 308.171875 113.828125 C 308.378906 113.621094 308.542969 113.417969 308.746094 113.210938 C 308.910156 113.046875 309.28125 112.84375 309.363281 112.636719 C 309.117188 112.84375 308.871094 113.007812 308.625 113.210938 C 308.789062 113.089844 308.992188 112.964844 309.199219 112.84375 C 309.363281 112.71875 309.609375 112.636719 309.773438 112.515625 C 308.789062 113.292969 308.746094 112.882812 309.445312 112.679688 C 309.648438 112.597656 310.183594 112.597656 310.304688 112.472656 C 310.222656 112.554688 308.664062 112.554688 309.691406 112.554688 C 309.894531 112.554688 310.140625 112.554688 310.386719 112.554688 C 311.617188 112.472656 308.910156 112.1875 310.101562 112.515625 C 310.304688 112.554688 310.550781 112.597656 310.757812 112.679688 C 311.289062 112.84375 312.027344 113.335938 310.59375 112.515625 C 311.125 112.800781 311.660156 113.046875 312.191406 113.375 C 312.398438 113.5 312.601562 113.664062 312.808594 113.785156 C 313.710938 114.359375 312.4375 113.582031 312.4375 113.5 C 312.480469 113.746094 313.667969 114.605469 313.875 114.769531 C 314.324219 115.21875 314.734375 115.710938 315.1875 116.203125 C 316.089844 117.1875 314.570312 115.300781 315.0625 116.039062 C 315.269531 116.324219 315.433594 116.570312 315.636719 116.859375 C 315.964844 117.351562 316.292969 117.839844 316.582031 118.332031 C 317.277344 119.523438 317.894531 120.75 318.46875 122.019531 C 318.632812 122.347656 318.753906 122.675781 318.917969 123.046875 C 319.082031 123.375 319.207031 124.070312 318.796875 122.757812 C 319 123.457031 319.371094 124.109375 319.617188 124.808594 C 320.148438 126.160156 320.601562 127.554688 321.050781 128.945312 C 321.871094 131.609375 322.570312 134.3125 323.101562 137.058594 C 323.347656 138.371094 323.59375 139.679688 323.800781 140.953125 C 323.839844 141.320312 323.921875 141.6875 323.964844 142.058594 C 324.046875 142.507812 324.375 143.410156 323.964844 141.933594 C 324.167969 142.632812 324.128906 143.410156 324.210938 144.148438 C 324.496094 146.933594 324.703125 149.761719 324.785156 152.546875 C 324.988281 158.53125 324.742188 164.554688 324.25 170.535156 C 323.265625 182.992188 321.257812 195.367188 320.109375 207.824219 C 318.960938 220.15625 318.796875 232.53125 317.359375 244.824219 C 317.277344 245.558594 317.195312 246.257812 317.113281 246.996094 C 316.910156 248.59375 317.238281 246.011719 317.113281 247.035156 C 317.074219 247.445312 316.992188 247.855469 316.949219 248.222656 C 316.746094 249.699219 316.5 251.214844 316.210938 252.691406 C 315.71875 255.3125 315.1875 257.894531 314.488281 260.476562 C 313.832031 263.058594 313.054688 265.597656 312.152344 268.097656 C 311.699219 269.367188 311.207031 270.597656 310.714844 271.824219 C 310.386719 272.6875 311.332031 270.390625 310.757812 271.703125 C 310.632812 271.949219 310.550781 272.195312 310.429688 272.480469 C 310.101562 273.175781 309.773438 273.875 309.445312 274.570312 C 308.253906 276.988281 306.941406 279.363281 305.425781 281.617188 C 304.726562 282.644531 304.03125 283.667969 303.25 284.691406 C 302.59375 285.59375 303.414062 284.527344 303.457031 284.40625 C 303.375 284.691406 303.003906 284.976562 302.800781 285.222656 C 302.308594 285.839844 301.816406 286.414062 301.28125 286.984375 C 299.4375 289.035156 297.425781 290.960938 295.335938 292.761719 C 294.351562 293.625 293.324219 294.445312 292.300781 295.261719 C 291.152344 296.164062 293.078125 294.6875 292.339844 295.222656 C 292.054688 295.425781 291.765625 295.671875 291.480469 295.878906 C 290.90625 296.328125 290.289062 296.738281 289.714844 297.1875 C 280.484375 303.867188 270.4375 309.605469 262.273438 317.675781 C 253.949219 325.871094 247.671875 336.933594 247.878906 348.898438 C 247.917969 351.847656 248.371094 354.839844 249.273438 357.667969 C 250.257812 360.742188 253.660156 363.078125 256.902344 362.011719 C 260.058594 360.988281 262.316406 357.667969 261.289062 354.347656 Z M 261.289062 354.347656 " fill-opacity="1" fill-rule="nonzero"/></g><path fill="#d05278" d="M 193.121094 354.183594 C 193.859375 344.390625 193.652344 334.515625 192.628906 324.722656 C 191.5625 314.519531 189.675781 304.402344 186.925781 294.527344 C 184.136719 284.609375 180.484375 274.980469 176.136719 265.636719 C 171.996094 256.746094 167.113281 248.222656 161.578125 240.152344 C 155.792969 231.710938 149.3125 223.722656 142.21875 216.386719 C 134.996094 208.929688 127.082031 202.167969 118.589844 196.144531 C 113.710938 192.703125 108.582031 189.753906 103.046875 187.5 C 100.503906 186.476562 97.878906 185.65625 95.210938 185.164062 C 92.21875 184.589844 89.140625 184.222656 86.105469 184.46875 C 82.660156 184.753906 79.253906 185.53125 76.261719 187.292969 C 73.511719 188.933594 71.132812 191.351562 69.699219 194.21875 C 66.992188 199.585938 66.582031 206.0625 68.507812 211.757812 C 70.558594 217.863281 74.414062 222.859375 78.558594 227.695312 C 82.496094 232.242188 86.554688 236.667969 90.742188 241.011719 C 99.148438 249.738281 107.96875 258.058594 116.828125 266.292969 C 119 268.300781 121.132812 270.269531 123.308594 272.277344 C 124.496094 273.382812 126.054688 274.078125 127.695312 274.078125 C 129.214844 274.078125 131.019531 273.421875 132.085938 272.277344 C 134.300781 269.898438 134.628906 265.84375 132.085938 263.507812 C 119 251.421875 105.875 239.292969 93.777344 226.136719 C 90.496094 222.574219 87.171875 218.96875 84.21875 215.117188 C 84.546875 215.527344 84.875 215.9375 85.203125 216.386719 C 83.316406 213.96875 81.632812 211.386719 80.445312 208.558594 C 80.648438 209.050781 80.855469 209.542969 81.058594 210.035156 C 80.402344 208.394531 79.871094 206.675781 79.664062 204.914062 C 79.746094 205.445312 79.828125 206.019531 79.871094 206.550781 C 79.664062 204.996094 79.664062 203.398438 79.871094 201.839844 C 79.789062 202.371094 79.707031 202.945312 79.664062 203.480469 C 79.871094 202.167969 80.199219 200.898438 80.691406 199.710938 C 80.484375 200.203125 80.28125 200.691406 80.074219 201.183594 C 80.527344 200.203125 81.058594 199.300781 81.714844 198.4375 C 81.386719 198.847656 81.058594 199.257812 80.730469 199.710938 C 81.304688 198.972656 82.003906 198.316406 82.742188 197.742188 C 82.332031 198.070312 81.921875 198.398438 81.46875 198.726562 C 82.289062 198.113281 83.152344 197.621094 84.09375 197.210938 C 83.601562 197.414062 83.109375 197.621094 82.617188 197.824219 C 83.972656 197.25 85.367188 196.921875 86.84375 196.71875 C 86.308594 196.800781 85.734375 196.882812 85.203125 196.921875 C 87.417969 196.636719 89.59375 196.71875 91.808594 197.003906 C 91.273438 196.921875 90.699219 196.839844 90.167969 196.800781 C 93.652344 197.292969 97.058594 198.277344 100.339844 199.628906 C 99.847656 199.421875 99.355469 199.21875 98.863281 199.011719 C 105.507812 201.839844 111.496094 205.980469 117.15625 210.363281 C 116.746094 210.035156 116.335938 209.707031 115.882812 209.378906 C 124.660156 216.179688 132.742188 223.84375 140.003906 232.203125 C 142.054688 234.578125 144.023438 236.996094 145.949219 239.496094 C 145.621094 239.085938 145.292969 238.675781 144.964844 238.226562 C 152.308594 247.730469 158.707031 257.976562 163.996094 268.753906 C 165.472656 271.785156 166.910156 274.898438 168.222656 278.011719 C 168.015625 277.519531 167.8125 277.027344 167.605469 276.539062 C 172.324219 287.722656 175.890625 299.359375 178.230469 311.285156 C 178.886719 314.644531 179.460938 318.046875 179.910156 321.445312 C 179.828125 320.914062 179.746094 320.339844 179.707031 319.808594 C 180.894531 328.617188 181.386719 337.550781 181.140625 346.441406 C 181.058594 348.980469 180.9375 351.5625 180.773438 354.101562 C 180.648438 355.621094 181.550781 357.464844 182.578125 358.488281 C 183.644531 359.554688 185.40625 360.371094 186.964844 360.289062 C 188.566406 360.207031 190.25 359.675781 191.355469 358.488281 C 192.464844 357.300781 192.996094 355.90625 193.121094 354.183594 Z M 193.121094 354.183594 " fill-opacity="1" fill-rule="nonzero"/><g clip-path="url(#90ec97babf)"><path fill="#d05278" d="M 125.644531 357.667969 C 129.171875 346.398438 125.5625 333.820312 118.632812 324.601562 C 111.496094 315.136719 101.773438 308.5 92.054688 301.902344 C 89.757812 300.34375 87.457031 298.785156 85.203125 297.148438 C 84.628906 296.738281 84.011719 296.289062 83.4375 295.835938 C 83.191406 295.671875 82.988281 295.46875 82.742188 295.304688 C 81.59375 294.445312 83.519531 295.917969 82.78125 295.34375 C 81.632812 294.445312 80.527344 293.542969 79.417969 292.558594 C 77.285156 290.714844 75.234375 288.75 73.347656 286.617188 C 72.980469 286.207031 72.609375 285.757812 72.28125 285.347656 C 72.078125 285.058594 71.832031 284.816406 71.625 284.527344 C 71.050781 283.832031 72.527344 285.757812 71.707031 284.652344 C 70.886719 283.542969 70.066406 282.398438 69.328125 281.25 C 67.894531 279.039062 66.621094 276.742188 65.472656 274.367188 C 65.1875 273.75 64.859375 273.097656 64.613281 272.480469 C 64.488281 272.234375 64.40625 271.988281 64.285156 271.703125 C 63.832031 270.679688 64.324219 271.90625 64.40625 272.03125 C 64.039062 271.496094 63.875 270.679688 63.628906 270.105469 C 63.382812 269.449219 63.136719 268.792969 62.890625 268.136719 C 61.042969 262.976562 59.730469 257.648438 58.789062 252.28125 C 58.542969 250.929688 58.335938 249.578125 58.132812 248.222656 C 58.089844 247.894531 58.050781 247.570312 58.007812 247.28125 C 57.761719 245.640625 58.171875 248.632812 57.96875 246.996094 C 57.886719 246.175781 57.761719 245.398438 57.679688 244.578125 C 57.351562 241.546875 57.066406 238.472656 56.820312 235.398438 C 56.367188 229.128906 56.039062 222.820312 55.628906 216.507812 C 54.808594 204.09375 53.003906 191.800781 51.652344 179.46875 C 50.339844 167.667969 49.558594 155.742188 50.871094 143.902344 C 50.953125 143.246094 51.078125 142.589844 51.117188 141.933594 C 51.078125 143.410156 51.035156 142.632812 51.078125 142.261719 C 51.160156 141.8125 51.199219 141.402344 51.28125 140.953125 C 51.527344 139.515625 51.773438 138.042969 52.0625 136.609375 C 52.636719 133.863281 53.332031 131.160156 54.152344 128.535156 C 54.5625 127.265625 54.972656 126.035156 55.464844 124.808594 C 55.710938 124.152344 55.957031 123.414062 56.285156 122.757812 C 56.203125 122.921875 55.710938 124.027344 56.164062 123.046875 C 56.328125 122.636719 56.53125 122.226562 56.695312 121.855469 C 57.230469 120.75 57.761719 119.605469 58.378906 118.539062 C 58.707031 117.964844 59.035156 117.433594 59.402344 116.898438 C 59.566406 116.695312 59.691406 116.488281 59.855469 116.242188 C 60.59375 115.179688 59.035156 117.144531 59.855469 116.242188 C 60.675781 115.300781 61.535156 114.480469 62.4375 113.621094 C 63.054688 113.046875 61.125 114.480469 62.234375 113.785156 C 62.4375 113.664062 62.644531 113.5 62.847656 113.375 C 63.09375 113.210938 63.382812 113.046875 63.628906 112.925781 C 63.832031 112.800781 64.980469 112.1875 63.996094 112.71875 C 63.09375 113.210938 63.996094 112.761719 64.242188 112.679688 C 64.449219 112.597656 64.695312 112.554688 64.898438 112.515625 C 66.089844 112.226562 63.585938 112.554688 64.449219 112.597656 C 64.734375 112.597656 65.023438 112.597656 65.308594 112.597656 C 65.882812 112.597656 65.882812 112.964844 64.695312 112.515625 C 64.898438 112.597656 65.1875 112.636719 65.390625 112.679688 C 65.515625 112.71875 65.636719 112.761719 65.71875 112.800781 C 66.335938 113.046875 66.171875 112.964844 65.226562 112.597656 C 65.390625 112.800781 65.882812 112.964844 66.089844 113.089844 C 66.539062 113.335938 66.539062 113.746094 65.636719 112.71875 C 65.761719 112.882812 65.964844 113.007812 66.128906 113.171875 C 66.375 113.417969 66.582031 113.664062 66.828125 113.90625 C 67.15625 114.277344 67.15625 114.644531 66.5 113.457031 C 67.074219 114.480469 67.730469 115.425781 68.222656 116.53125 C 68.671875 117.472656 68.015625 116.121094 68.015625 116.039062 C 68.058594 116.324219 68.222656 116.613281 68.34375 116.859375 C 68.550781 117.351562 68.714844 117.839844 68.878906 118.375 C 69.371094 119.847656 69.820312 121.324219 70.273438 122.800781 C 71.996094 128.617188 73.429688 134.558594 74.496094 140.582031 C 74.742188 142.058594 74.988281 143.53125 75.234375 145.050781 C 75.277344 145.375 75.316406 145.664062 75.359375 145.992188 C 75.359375 146.074219 75.5625 147.628906 75.441406 146.566406 C 75.316406 145.539062 75.523438 147.097656 75.523438 147.140625 C 75.5625 147.589844 75.644531 148.082031 75.6875 148.53125 C 76.015625 151.523438 76.300781 154.515625 76.464844 157.503906 C 76.628906 160.496094 76.710938 163.527344 76.753906 166.519531 C 76.753906 169.757812 79.582031 172.871094 82.945312 172.707031 C 86.308594 172.542969 89.183594 169.960938 89.140625 166.519531 C 89.101562 153.652344 87.539062 140.707031 84.585938 128.207031 C 83.152344 122.144531 81.550781 115.996094 78.96875 110.300781 C 76.425781 104.6875 71.132812 100.019531 64.652344 100.261719 C 57.804688 100.507812 52.390625 105.304688 48.738281 110.710938 C 46.933594 113.335938 45.703125 116.242188 44.515625 119.152344 C 43.449219 121.734375 42.503906 124.355469 41.726562 127.019531 C 38.363281 138.574219 37.5 150.867188 37.992188 162.875 C 38.484375 175.78125 40.496094 188.5625 41.929688 201.390625 C 43.367188 214.09375 43.695312 226.875 44.800781 239.621094 C 45.867188 251.582031 47.714844 263.628906 52.226562 274.816406 C 54.441406 280.265625 57.066406 285.550781 60.550781 290.304688 C 64.160156 295.222656 68.304688 299.566406 73.0625 303.375 C 77.859375 307.226562 82.945312 310.667969 88.074219 314.152344 C 90.453125 315.75 92.792969 317.347656 95.089844 319.027344 C 95.621094 319.398438 96.113281 319.765625 96.648438 320.175781 C 96.933594 320.378906 97.261719 320.585938 97.507812 320.832031 C 96.484375 319.890625 96.976562 320.421875 97.261719 320.625 C 98.410156 321.570312 99.601562 322.46875 100.707031 323.453125 C 102.800781 325.257812 104.769531 327.183594 106.613281 329.230469 C 107.066406 329.765625 107.558594 330.296875 107.96875 330.828125 C 108.132812 330.992188 108.378906 331.28125 108.5 331.484375 C 107.804688 330.132812 108.296875 331.238281 108.542969 331.566406 C 109.363281 332.671875 110.101562 333.820312 110.796875 335.007812 C 111.453125 336.113281 112.070312 337.304688 112.601562 338.492188 C 112.808594 338.941406 112.929688 339.761719 112.5625 338.328125 C 112.644531 338.574219 112.765625 338.859375 112.847656 339.105469 C 113.136719 339.886719 113.421875 340.664062 113.628906 341.441406 C 113.996094 342.628906 114.285156 343.820312 114.488281 345.007812 C 114.53125 345.292969 114.53125 345.949219 114.695312 346.195312 C 114.613281 346.070312 114.53125 344.636719 114.613281 345.746094 C 114.652344 346.480469 114.734375 347.21875 114.734375 347.957031 C 114.734375 348.570312 114.734375 349.144531 114.695312 349.761719 C 114.652344 350.292969 114.324219 352.382812 114.695312 350.496094 C 114.40625 351.808594 114.203125 353.121094 113.792969 354.429688 C 112.808594 357.546875 114.941406 361.355469 118.140625 362.050781 C 121.378906 362.75 124.578125 360.988281 125.644531 357.667969 Z M 125.644531 357.667969 " fill-opacity="1" fill-rule="nonzero"/></g><path fill="#d05278" d="M 177.121094 174.714844 C 175.769531 173.976562 174.414062 173.15625 173.101562 172.296875 C 172.488281 171.886719 171.871094 171.476562 171.257812 171.027344 C 170.929688 170.78125 170.601562 170.535156 170.273438 170.289062 C 169.738281 169.878906 170.886719 170.78125 170.847656 170.742188 C 170.601562 170.578125 170.394531 170.371094 170.191406 170.207031 C 167.769531 168.242188 165.515625 166.070312 163.464844 163.734375 C 162.972656 163.160156 162.480469 162.585938 162.027344 162.011719 C 161.90625 161.890625 161.824219 161.726562 161.699219 161.601562 C 161.207031 160.988281 162.519531 162.667969 162.027344 162.054688 C 161.78125 161.726562 161.535156 161.398438 161.289062 161.070312 C 160.347656 159.757812 159.445312 158.40625 158.625 157.054688 C 157.804688 155.703125 157.066406 154.351562 156.410156 152.957031 C 156.082031 152.300781 155.753906 151.605469 155.464844 150.910156 C 155.015625 149.882812 155.957031 152.136719 155.546875 151.113281 C 155.382812 150.703125 155.21875 150.253906 155.054688 149.84375 C 153.660156 146.113281 152.71875 142.261719 152.144531 138.328125 C 152.226562 138.863281 152.308594 139.4375 152.347656 139.96875 C 151.691406 135.050781 151.691406 130.132812 152.347656 125.21875 C 152.265625 125.75 152.183594 126.324219 152.144531 126.855469 C 152.511719 124.273438 153.003906 121.734375 153.742188 119.234375 C 154.070312 118.128906 154.398438 116.980469 154.808594 115.917969 C 155.015625 115.300781 155.261719 114.6875 155.507812 114.113281 C 155.589844 113.910156 155.753906 113.621094 155.792969 113.375 C 155.425781 114.234375 155.34375 114.398438 155.589844 113.828125 C 155.628906 113.746094 155.671875 113.621094 155.710938 113.539062 C 157.433594 109.6875 159.609375 106.042969 162.070312 102.597656 C 162.355469 102.230469 162.644531 101.820312 162.929688 101.453125 C 163.628906 100.507812 162.152344 102.476562 162.644531 101.820312 C 162.808594 101.617188 162.972656 101.410156 163.136719 101.207031 C 163.792969 100.386719 164.488281 99.566406 165.1875 98.746094 C 166.539062 97.148438 167.976562 95.632812 169.453125 94.160156 C 172.445312 91.085938 175.644531 88.21875 178.925781 85.429688 C 185.488281 79.859375 192.339844 74.613281 198.902344 69.039062 C 206.164062 62.855469 212.765625 56.175781 218.507812 48.554688 C 221.996094 43.921875 225.113281 39.007812 227.902344 33.925781 C 229.296875 31.386719 230.527344 28.804688 231.796875 26.261719 C 232.042969 25.8125 232.289062 25.320312 232.535156 24.871094 C 232.660156 24.625 232.824219 24.417969 232.945312 24.214844 C 233.683594 23.109375 232.332031 24.910156 232.742188 24.460938 C 232.90625 24.253906 233.070312 24.089844 233.273438 23.886719 C 233.398438 23.761719 233.480469 23.679688 233.601562 23.597656 C 233.972656 23.273438 233.726562 23.476562 232.90625 24.132812 C 232.988281 24.089844 233.316406 23.925781 233.398438 23.84375 C 232.332031 24.253906 232.085938 24.378906 232.660156 24.171875 C 232.824219 24.132812 233.027344 24.089844 233.191406 24.089844 C 232.660156 24.171875 232.085938 24.253906 231.550781 24.296875 C 231.839844 24.296875 232.085938 24.296875 232.371094 24.335938 C 231.839844 24.253906 231.265625 24.171875 230.730469 24.132812 C 230.8125 24.132812 231.265625 24.214844 231.347656 24.296875 C 231.347656 24.296875 229.871094 23.597656 230.8125 24.171875 C 230.8125 24.171875 229.828125 23.273438 230.238281 23.761719 C 230.402344 23.925781 230.609375 24.089844 230.773438 24.253906 C 231.46875 24.953125 232.125 25.6875 232.742188 26.425781 C 233.355469 27.125 233.929688 27.820312 234.546875 28.558594 C 234.832031 28.886719 235.078125 29.214844 235.367188 29.582031 C 235.777344 30.113281 234.914062 29.007812 234.957031 29.050781 C 235.121094 29.296875 235.324219 29.539062 235.53125 29.785156 C 237.789062 32.777344 239.839844 35.933594 241.644531 39.210938 C 242.585938 40.890625 243.449219 42.570312 244.269531 44.292969 C 244.679688 45.113281 245.046875 45.972656 245.417969 46.832031 C 245.5 46.996094 245.582031 47.160156 245.621094 47.324219 C 245.949219 48.0625 245.128906 46.136719 245.417969 46.875 C 245.621094 47.40625 245.828125 47.898438 246.03125 48.429688 C 247.386719 51.871094 248.535156 55.394531 249.519531 58.960938 C 250.625 63.140625 251.488281 67.402344 252.0625 71.664062 C 251.980469 71.128906 251.898438 70.558594 251.855469 70.023438 C 253.292969 80.757812 253.085938 91.660156 251.652344 102.433594 C 251.734375 101.902344 251.816406 101.328125 251.855469 100.796875 C 250.75 109.03125 248.945312 117.144531 246.566406 125.09375 C 245.5 128.660156 244.351562 132.222656 243.039062 135.707031 C 242.382812 137.46875 241.644531 139.230469 240.945312 140.953125 C 240.945312 140.992188 241.480469 139.722656 241.191406 140.335938 C 241.109375 140.5 241.027344 140.664062 240.988281 140.871094 C 240.78125 141.320312 240.578125 141.769531 240.371094 142.261719 C 240.003906 143.125 239.59375 143.984375 239.183594 144.84375 C 237.582031 148.164062 235.859375 151.441406 233.929688 154.597656 C 232.988281 156.152344 232.003906 157.667969 230.976562 159.144531 C 230.484375 159.839844 229.953125 160.578125 229.460938 161.273438 C 229.214844 161.601562 228.925781 161.972656 228.679688 162.300781 C 228.722656 162.21875 229.625 161.113281 228.96875 161.929688 C 228.804688 162.136719 228.640625 162.339844 228.515625 162.503906 C 226.21875 165.332031 223.71875 168.035156 221.050781 170.496094 C 220.4375 171.066406 219.78125 171.640625 219.125 172.175781 C 218.796875 172.460938 218.46875 172.707031 218.140625 172.992188 C 217.933594 173.15625 217.769531 173.28125 217.566406 173.445312 C 216.910156 173.976562 217.769531 173.28125 217.976562 173.15625 C 216.417969 174.101562 215.023438 175.328125 213.503906 176.273438 C 211.863281 177.296875 210.183594 178.28125 208.460938 179.179688 C 207.558594 179.632812 206.613281 180.082031 205.671875 180.535156 C 205.507812 180.617188 205.34375 180.699219 205.179688 180.738281 C 203.988281 181.269531 206.203125 180.328125 205.507812 180.617188 C 205.054688 180.777344 204.605469 180.984375 204.152344 181.148438 C 200.378906 182.582031 196.484375 183.605469 192.503906 184.140625 C 193.039062 184.058594 193.613281 183.976562 194.144531 183.933594 C 190.085938 184.46875 186.023438 184.507812 181.960938 183.976562 C 182.496094 184.058594 183.070312 184.140625 183.601562 184.179688 C 182.332031 184.015625 181.058594 183.769531 179.828125 183.402344 C 179.214844 183.238281 178.597656 183.03125 178.023438 182.785156 C 176.917969 182.417969 179.296875 183.402344 178.351562 182.910156 C 178.023438 182.746094 177.695312 182.582031 177.367188 182.417969 C 177.082031 182.253906 176.835938 182.089844 176.589844 181.925781 C 175.523438 181.1875 177.328125 182.582031 176.875 182.171875 C 176.425781 181.761719 176.015625 181.351562 175.605469 180.902344 C 175.195312 180.453125 176.546875 182.296875 175.851562 181.1875 C 175.6875 180.941406 175.5625 180.65625 175.398438 180.371094 C 175.195312 179.960938 175.316406 180.207031 175.644531 180.984375 C 175.5625 180.820312 175.523438 180.617188 175.480469 180.453125 C 175.359375 180.042969 175.277344 179.589844 175.195312 179.179688 C 175.277344 179.714844 175.359375 180.289062 175.398438 180.820312 C 175.277344 179.671875 175.277344 178.566406 175.441406 177.417969 C 175.359375 177.953125 175.277344 178.527344 175.234375 179.058594 C 175.605469 176.558594 176.464844 174.222656 177.410156 171.929688 C 177.574219 171.558594 178.476562 169.46875 177.695312 171.273438 C 177.941406 170.742188 178.148438 170.207031 178.394531 169.675781 C 178.925781 168.488281 179.417969 167.296875 179.992188 166.152344 C 182.042969 161.683594 184.257812 157.300781 186.636719 153 C 189.058594 148.65625 191.601562 144.394531 194.351562 140.214844 C 195.703125 138.164062 197.097656 136.117188 198.492188 134.148438 C 199.148438 133.207031 199.847656 132.265625 200.542969 131.324219 C 201.28125 130.339844 202.265625 129.316406 202.882812 128.207031 C 202.839844 128.332031 201.980469 129.355469 202.636719 128.535156 C 202.882812 128.25 203.128906 127.921875 203.332031 127.636719 C 203.785156 127.0625 204.234375 126.527344 204.644531 125.953125 C 205.507812 124.890625 206.367188 123.863281 207.230469 122.800781 C 209.074219 120.628906 210.921875 118.496094 212.847656 116.40625 C 215.0625 114.03125 215.390625 109.976562 212.847656 107.640625 C 210.386719 105.386719 206.492188 105.179688 204.070312 107.640625 C 190.535156 121.324219 180.402344 138.042969 173.839844 156.113281 C 167.484375 173.730469 164.695312 192.867188 165.964844 211.59375 C 166.703125 222.367188 168.671875 233.0625 172.035156 243.308594 C 173.0625 246.378906 176.382812 248.714844 179.664062 247.648438 C 182.742188 246.667969 185.078125 243.308594 184.011719 240.027344 C 181.632812 232.859375 179.953125 225.484375 178.96875 218.027344 C 179.050781 218.558594 179.132812 219.132812 179.171875 219.664062 C 177.65625 208.273438 177.738281 196.71875 179.253906 185.328125 C 179.171875 185.859375 179.089844 186.433594 179.050781 186.964844 C 180.484375 176.355469 183.191406 165.90625 187.128906 155.949219 C 187.375 155.332031 187.621094 154.679688 187.867188 154.0625 C 187.992188 153.816406 188.074219 153.53125 188.195312 153.285156 C 188.527344 152.507812 187.539062 154.800781 188.03125 153.695312 C 188.609375 152.34375 189.222656 151.03125 189.839844 149.679688 C 190.945312 147.34375 192.09375 145.007812 193.367188 142.753906 C 195.949219 138 198.820312 133.453125 202.019531 129.070312 C 202.429688 128.535156 202.800781 127.960938 203.210938 127.429688 C 203.414062 127.144531 203.621094 126.898438 203.824219 126.609375 C 204.480469 125.75 202.839844 127.839844 203.90625 126.527344 C 204.808594 125.382812 205.753906 124.234375 206.695312 123.128906 C 208.664062 120.792969 210.714844 118.578125 212.847656 116.40625 C 209.9375 113.5 206.984375 110.546875 204.070312 107.640625 C 191.355469 121.488281 180.484375 137.101562 172.078125 153.941406 C 169.863281 158.40625 167.8125 162.957031 165.882812 167.585938 C 163.792969 172.625 161.988281 178.117188 163.464844 183.605469 C 166.292969 194.054688 178.269531 196.71875 187.664062 196.71875 C 206.246094 196.800781 223.964844 186.882812 235.859375 172.992188 C 248.246094 158.53125 255.589844 140.417969 260.304688 122.144531 C 265.390625 102.394531 266.992188 81.621094 262.847656 61.542969 C 261.003906 52.570312 257.925781 43.800781 253.742188 35.644531 C 251.734375 31.753906 249.476562 28.023438 246.894531 24.5 C 245.375 22.453125 243.816406 20.402344 242.136719 18.476562 C 240.496094 16.550781 238.730469 14.421875 236.472656 13.234375 C 233.355469 11.554688 229.335938 11.675781 226.425781 13.765625 C 224.210938 15.363281 222.488281 17.496094 221.214844 19.910156 C 219.164062 23.96875 217.15625 28.066406 214.816406 32 C 213.585938 34.046875 212.355469 36.054688 211.003906 38.023438 C 210.386719 38.964844 209.730469 39.867188 209.074219 40.769531 C 208.746094 41.257812 208.378906 41.710938 208.007812 42.203125 C 207.84375 42.40625 207.679688 42.613281 207.515625 42.816406 C 206.65625 43.921875 208.378906 41.710938 207.515625 42.816406 C 204.851562 46.175781 202.019531 49.371094 198.984375 52.40625 C 187.828125 63.425781 174.660156 72.195312 163.300781 83.011719 C 157.515625 88.503906 152.183594 94.648438 148.082031 101.492188 C 143.160156 109.730469 140.332031 118.949219 139.59375 128.496094 C 138.15625 146.976562 145.910156 165.742188 159.894531 177.910156 C 163.257812 180.820312 166.867188 183.441406 170.765625 185.574219 C 173.636719 187.128906 177.65625 186.351562 179.253906 183.359375 C 180.894531 180.289062 180.15625 176.355469 177.121094 174.714844 Z M 177.121094 174.714844 " fill-opacity="1" fill-rule="nonzero"/></svg>