<?xml version="1.0" encoding="utf-8"?>
<!-- Generator: Adobe Illustrator 28.5.0, SVG Export Plug-In . SVG Version: 9.03 Build 54727)  -->
<svg version="1.0" id="Layer_1" xmlns="http://www.w3.org/2000/svg" xmlns:xlink="http://www.w3.org/1999/xlink" x="0px" y="0px"
	 viewBox="0 0 64 64"  xml:space="preserve">
<style type="text/css">
	.st0{fill:none;stroke:#d05278;stroke-width:2;stroke-linecap:round;stroke-linejoin:round;stroke-miterlimit:10;}
</style> 
<g>
	<circle class="st0" cx="32" cy="24.2" r="14.5"/>
	<path class="st0" d="M54.6,24.2c0,2.2-4.3,3.7-4.9,5.8c-0.7,2.1,1.8,5.8,0.6,7.5c-1.3,1.7-5.6,0.5-7.4,1.8c-1.7,1.3-1.9,5.8-4,6.5
		c-2,0.7-4.8-2.9-7-2.9c-2.2,0-5,3.6-7,2.9c-2.1-0.7-2.2-5.2-4-6.5c-1.7-1.3-6.1,0-7.4-1.8C12.4,35.8,15,32,14.3,30
		c-0.7-2-4.9-3.5-4.9-5.8c0-2.2,4.3-3.7,4.9-5.8c0.7-2.1-1.8-5.8-0.6-7.5c1.3-1.7,5.6-0.5,7.4-1.8c1.7-1.3,1.9-5.8,4-6.5
		c2-0.7,4.8,2.9,7,2.9c2.2,0,5-3.6,7-2.9c2.1,0.7,2.2,5.2,4,6.5c1.7,1.3,6.1,0,7.4,1.8c1.3,1.7-1.3,5.5-0.6,7.5
		C50.4,20.5,54.6,22,54.6,24.2z"/>
	<polyline class="st0" points="44.2,38.8 44.2,61.4 31.6,54.7 19.8,61.4 19.8,38.8 	"/>
	<polygon class="st0" points="38,15.5 42.6,23.6 32,33 21.4,23.6 26,15.5 	"/>
	<polygon class="st0" points="34,15.5 35.5,23.6 32,33 28.5,23.6 30,15.5 	"/>
	<line class="st0" x1="21.4" y1="23.6" x2="42.6" y2="23.6"/>
</g>
</svg>
